<?xml version="1.0" encoding="UTF-8" standalone="no"?>
<!DOCTYPE svg PUBLIC "-//W3C//DTD SVG 1.1//EN"
 "http://www.w3.org/Graphics/SVG/1.1/DTD/svg11.dtd">
<!-- Generated by graphviz version 12.2.1 (20241206.2353)
 -->
<!-- Pages: 1 -->
<svg width="843pt" height="128pt"
 viewBox="0.00 0.00 842.75 128.00" xmlns="http://www.w3.org/2000/svg" xmlns:xlink="http://www.w3.org/1999/xlink">
<g id="graph0" class="graph" transform="scale(1 1) rotate(0) translate(4 124)">
<polygon fill="white" stroke="none" points="-4,4 -4,-124 838.75,-124 838.75,4 -4,4"/>
<!-- 1927249803312 -->
<g id="node1" class="node">
<title>1927249803312</title>
<polygon fill="none" stroke="black" points="9,-83.5 9,-119.5 195.75,-119.5 195.75,-83.5 9,-83.5"/>
<text text-anchor="middle" x="21.88" y="-96.7" font-family="Times New Roman,serif" font-size="14.00">w</text>
<polyline fill="none" stroke="black" points="34.75,-84 34.75,-119.5"/>
<text text-anchor="middle" x="74.62" y="-96.7" font-family="Times New Roman,serif" font-size="14.00">data 5.0000</text>
<polyline fill="none" stroke="black" points="114.5,-84 114.5,-119.5"/>
<text text-anchor="middle" x="155.12" y="-96.7" font-family="Times New Roman,serif" font-size="14.00">grad 2.0000</text>
</g>
<!-- 1927249805232* -->
<g id="node7" class="node">
<title>1927249805232*</title>
<ellipse fill="none" stroke="black" cx="267.75" cy="-73.5" rx="27" ry="18"/>
<text text-anchor="middle" x="267.75" y="-68.45" font-family="Times New Roman,serif" font-size="14.00">*</text>
</g>
<!-- 1927249803312&#45;&gt;1927249805232* -->
<g id="edge3" class="edge">
<title>1927249803312&#45;&gt;1927249805232*</title>
<path fill="none" stroke="black" d="M196.04,-85.62C207.95,-83.58 219.54,-81.59 229.77,-79.84"/>
<polygon fill="black" stroke="black" points="230.35,-83.29 239.61,-78.15 229.16,-76.39 230.35,-83.29"/>
</g>
<!-- 1927249802880 -->
<g id="node2" class="node">
<title>1927249802880</title>
<polygon fill="none" stroke="black" points="0,-28.5 0,-64.5 204.75,-64.5 204.75,-28.5 0,-28.5"/>
<text text-anchor="middle" x="21.88" y="-41.7" font-family="Times New Roman,serif" font-size="14.00">input</text>
<polyline fill="none" stroke="black" points="43.75,-29 43.75,-64.5"/>
<text text-anchor="middle" x="83.62" y="-41.7" font-family="Times New Roman,serif" font-size="14.00">data 2.0000</text>
<polyline fill="none" stroke="black" points="123.5,-29 123.5,-64.5"/>
<text text-anchor="middle" x="164.12" y="-41.7" font-family="Times New Roman,serif" font-size="14.00">grad 5.0000</text>
</g>
<!-- 1927249802880&#45;&gt;1927249805232* -->
<g id="edge4" class="edge">
<title>1927249802880&#45;&gt;1927249805232*</title>
<path fill="none" stroke="black" d="M204.98,-63.29C213.86,-64.76 222.4,-66.17 230.16,-67.45"/>
<polygon fill="black" stroke="black" points="229.33,-70.86 239.77,-69.04 230.47,-63.96 229.33,-70.86"/>
</g>
<!-- 1927249799952 -->
<g id="node3" class="node">
<title>1927249799952</title>
<polygon fill="none" stroke="black" points="644.25,-27.5 644.25,-63.5 834.75,-63.5 834.75,-27.5 644.25,-27.5"/>
<text text-anchor="middle" x="655.62" y="-40.7" font-family="Times New Roman,serif" font-size="14.00">y</text>
<polyline fill="none" stroke="black" points="667,-28 667,-63.5"/>
<text text-anchor="middle" x="710.25" y="-40.7" font-family="Times New Roman,serif" font-size="14.00">data 11.0000</text>
<polyline fill="none" stroke="black" points="753.5,-28 753.5,-63.5"/>
<text text-anchor="middle" x="794.12" y="-40.7" font-family="Times New Roman,serif" font-size="14.00">grad 1.0000</text>
</g>
<!-- 1927249799952+ -->
<g id="node4" class="node">
<title>1927249799952+</title>
<ellipse fill="none" stroke="black" cx="581.25" cy="-45.5" rx="27" ry="18"/>
<text text-anchor="middle" x="581.25" y="-40.45" font-family="Times New Roman,serif" font-size="14.00">+</text>
</g>
<!-- 1927249799952+&#45;&gt;1927249799952 -->
<g id="edge1" class="edge">
<title>1927249799952+&#45;&gt;1927249799952</title>
<path fill="none" stroke="black" d="M608.4,-45.5C615.55,-45.5 623.76,-45.5 632.5,-45.5"/>
<polygon fill="black" stroke="black" points="632.31,-49 642.31,-45.5 632.31,-42 632.31,-49"/>
</g>
<!-- 1927249789728 -->
<g id="node5" class="node">
<title>1927249789728</title>
<polygon fill="none" stroke="black" points="332.62,-0.5 332.62,-36.5 516.38,-36.5 516.38,-0.5 332.62,-0.5"/>
<text text-anchor="middle" x="344" y="-13.7" font-family="Times New Roman,serif" font-size="14.00">b</text>
<polyline fill="none" stroke="black" points="355.38,-1 355.38,-36.5"/>
<text text-anchor="middle" x="395.25" y="-13.7" font-family="Times New Roman,serif" font-size="14.00">data 1.0000</text>
<polyline fill="none" stroke="black" points="435.12,-1 435.12,-36.5"/>
<text text-anchor="middle" x="475.75" y="-13.7" font-family="Times New Roman,serif" font-size="14.00">grad 1.0000</text>
</g>
<!-- 1927249789728&#45;&gt;1927249799952+ -->
<g id="edge6" class="edge">
<title>1927249789728&#45;&gt;1927249799952+</title>
<path fill="none" stroke="black" d="M516.86,-34.44C526.18,-36.07 535.22,-37.64 543.42,-39.07"/>
<polygon fill="black" stroke="black" points="542.81,-42.52 553.26,-40.79 544.01,-35.62 542.81,-42.52"/>
</g>
<!-- 1927249805232 -->
<g id="node6" class="node">
<title>1927249805232</title>
<polygon fill="none" stroke="black" points="330.75,-55.5 330.75,-91.5 518.25,-91.5 518.25,-55.5 330.75,-55.5"/>
<text text-anchor="middle" x="340.62" y="-68.7" font-family="Times New Roman,serif" font-size="14.00"> </text>
<polyline fill="none" stroke="black" points="350.5,-56 350.5,-91.5"/>
<text text-anchor="middle" x="393.75" y="-68.7" font-family="Times New Roman,serif" font-size="14.00">data 10.0000</text>
<polyline fill="none" stroke="black" points="437,-56 437,-91.5"/>
<text text-anchor="middle" x="477.62" y="-68.7" font-family="Times New Roman,serif" font-size="14.00">grad 1.0000</text>
</g>
<!-- 1927249805232&#45;&gt;1927249799952+ -->
<g id="edge5" class="edge">
<title>1927249805232&#45;&gt;1927249799952+</title>
<path fill="none" stroke="black" d="M518.64,-56.65C527.4,-55.06 535.88,-53.53 543.59,-52.13"/>
<polygon fill="black" stroke="black" points="543.96,-55.62 553.18,-50.4 542.71,-48.73 543.96,-55.62"/>
</g>
<!-- 1927249805232*&#45;&gt;1927249805232 -->
<g id="edge2" class="edge">
<title>1927249805232*&#45;&gt;1927249805232</title>
<path fill="none" stroke="black" d="M295,-73.5C302.16,-73.5 310.37,-73.5 319.1,-73.5"/>
<polygon fill="black" stroke="black" points="318.89,-77 328.89,-73.5 318.89,-70 318.89,-77"/>
</g>
</g>
</svg>
